Simulation
nRows=19
nColumns=15
endheader
time  TH_x TH_y TH_z SC_y  SC_z  SC_x  AC_y  AC_z  AC_x  GH_y  GH_z  GH_yy  EL_x  PS_y
1.9499999999999993  0.000000  0.000000  0.000000  -29.752839323158685  8.410224337444594  25.169576341383163  63.306554670587516  11.00490403196998  -0.8763808679390424  48.0054029802163  59.02776499830133  -44.14272948014125  22.36448800780618  0.000000
1.9889999999999992  0.000000  0.000000  0.000000  -29.516520238252756  8.103503433646447  24.674324286244634  63.08453329299177  10.788569134624362  -1.6010230397067442  48.4363735635146  58.147350430615774  -43.672267520053836  22.58093184587905  0.000000
2.027999999999999  0.000000  0.000000  0.000000  -29.233102789088978  7.752594678709434  24.12300308855235  62.839805613747174  10.54358414501494  -2.3871402870182408  48.91656339225585  57.15582303305071  -43.26534189495284  22.78577701463766  0.000000
2.0669999999999993  0.000000  0.000000  0.000000  -28.908354925623307  7.36171715784088  23.519852102054347  62.58005909641905  10.270744923217041  -3.2147629158049784  49.4446889338471  56.06675220396296  -42.92610856873936  22.966809643763444  0.000000
2.1059999999999994  0.000000  0.000000  0.000000  -28.550502176348267  6.934216969610446  22.87117277325614  62.309759859992255  9.974456337634233  -4.066686416033586  49.99900891277112  54.896512583200675  -42.605231640746595  23.113697174831447  0.000000
2.144999999999999  0.000000  0.000000  0.000000  -28.167859902057774  6.473625906902675  22.180266250075  62.02977222887642  9.663786685912847  -4.927986170953392  50.543099065252306  53.66275804421723  -42.22644343762837  23.219125008681626  0.000000
2.1839999999999993  0.000000  0.000000  0.000000  -27.769899021887685  5.984046491269329  21.44316406004142  61.740437674772565  9.350084262085094  -5.782790795280915  51.03962261482917  52.38406840504717  -41.72676635219588  23.28290248928865  0.000000
2.2229999999999994  0.000000  0.000000  0.000000  -27.371672717343035  5.469780817153944  20.644655859676245  61.44626169200812  9.043962376127066  -6.609759953203249  51.459077126500254  51.080712385766226  -41.08038535462188  23.315809935721944  0.000000
2.261999999999999  0.000000  0.000000  0.000000  -26.998026708419964  4.9381379327919515  19.757341127130758  61.1585329926562  8.750916828715791  -7.3753599179871046  51.7748162179784  49.77328862491282  -40.289153381410806  23.337390731458203  0.000000
2.3009999999999993  0.000000  0.000000  0.000000  -26.67983011088764  4.400436151285647  18.746859967735478  60.8922494415332  8.472461664825195  -8.035246667901573  51.952502471911934  48.47685404446011  -39.35071627357912  23.36874231250146  0.000000
2.339999999999999  0.000000  0.000000  0.000000  -26.44127337768008  3.8709193766943435  17.582282464512325  60.6573666204336  8.212906950077768  -8.545006958927024  51.94783374120481  47.191847708236466  -38.23275083993329  23.42695121212574  0.000000
2.378999999999999  0.000000  0.000000  0.000000  -26.2904587162176  3.362679887573933  16.246904972722078  60.451621798888446  7.9832042932803455  -8.874045562586648  51.71763455964244  45.90253563592306  -36.87445171471162  23.526525189556608  0.000000
2.4179999999999993  0.000000  0.000000  0.000000  -26.21969390198904  2.882800786681167  14.744741778959838  60.257325101240596  7.800779618625173  -9.01574272040722  51.2378108780868  44.58449075503762  -35.212686992846365  23.68407963261265  0.000000
2.456999999999999  0.000000  0.000000  0.000000  -26.21247967896829  2.4334576652362294  13.09819616739611  60.05224306229406  7.681178641336683  -8.985434981284417  50.49938855420748  43.216920147390184  -33.20379910100417  23.91583245145144  0.000000
2.495999999999999  0.000000  0.000000  0.000000  -26.253406192406285  2.014216124403854  11.34090556054406  59.81939329591318  7.630150608318991  -8.809728237689761  49.49804047513368  41.791049519889945  -30.83385023518789  24.233668210789638  0.000000
2.5349999999999993  0.000000  0.000000  0.000000  -26.333727727793608  1.623665974842662  9.511379943529574  59.550671511442175  7.644830440683017  -8.51885389139119  48.23321685748568  40.310687119233805  -28.122349323523217  24.642561056970052  0.000000
2.573999999999999  0.000000  0.000000  0.000000  -26.44879515140657  1.2607323699171673  7.649085415230848  59.24671655424987  7.716170460904427  -8.14068138519715  46.70902525540644  38.78753273143373  -25.11704299862614  25.134658210761852  0.000000
2.612999999999999  0.000000  0.000000  0.000000  -26.59307949354209  0.9242570385963065  5.791724524946241  58.91487001813378  7.831711294238051  -7.699566836679661  44.94033254241871  37.23628955244193  -21.891609142190696  25.683531439705906  0.000000
2.6519999999999992  0.000000  0.000000  0.000000  -26.759445455835376  0.6133781880601326  3.9741012307681154  58.56540289402976  7.977978184793093  -7.217047177983937  42.95920301517218  35.6695070066781  -18.53993555744956  26.246091936687918  0.000000
